<svg xmlns="http://www.w3.org/2000/svg" xmlns:xlink="http://www.w3.org/1999/xlink" width="200" zoomAndPan="magnify" viewBox="0 0 150 149.999998" height="200" preserveAspectRatio="xMidYMid meet" version="1.0"><defs><g/></defs><g fill="#ef7a2a" fill-opacity="1"><g transform="translate(21.988696, 86.9557)"><g><path d="M 12.0625 -20.765625 L 20.4375 0 L 15.359375 0 L 13.8125 -4.15625 L 5.921875 -4.15625 L 4.375 0 L -0.703125 0 L 7.671875 -20.765625 Z M 12.203125 -8.3125 L 9.890625 -14.34375 L 9.84375 -14.34375 L 7.53125 -8.3125 Z M 12.203125 -8.3125 "/></g></g></g><g fill="#ef7a2a" fill-opacity="1"><g transform="translate(41.160434, 86.9557)"><g><path d="M 8.375 -9.640625 C 7.539062 -9.640625 6.820312 -9.328125 6.21875 -8.703125 C 5.613281 -8.085938 5.3125 -7.34375 5.3125 -6.46875 C 5.3125 -5.582031 5.613281 -4.828125 6.21875 -4.203125 C 6.820312 -3.578125 7.539062 -3.265625 8.375 -3.265625 C 8.78125 -3.265625 9.160156 -3.316406 9.515625 -3.421875 C 9.878906 -3.523438 10.148438 -3.625 10.328125 -3.71875 L 10.546875 -3.875 L 12.0625 -0.78125 C 11.9375 -0.695312 11.769531 -0.59375 11.5625 -0.46875 C 11.351562 -0.34375 10.875 -0.171875 10.125 0.046875 C 9.382812 0.265625 8.585938 0.375 7.734375 0.375 C 5.835938 0.375 4.171875 -0.289062 2.734375 -1.625 C 1.296875 -2.957031 0.578125 -4.554688 0.578125 -6.421875 C 0.578125 -8.296875 1.296875 -9.910156 2.734375 -11.265625 C 4.171875 -12.617188 5.835938 -13.296875 7.734375 -13.296875 C 8.585938 -13.296875 9.375 -13.191406 10.09375 -12.984375 C 10.8125 -12.785156 11.320312 -12.585938 11.625 -12.390625 L 12.0625 -12.078125 L 10.546875 -9.03125 C 9.992188 -9.4375 9.269531 -9.640625 8.375 -9.640625 Z M 8.375 -9.640625 "/></g></g></g><g fill="#ef7a2a" fill-opacity="1"><g transform="translate(52.960232, 86.9557)"><g><path d="M 2.265625 -12.90625 L 2.265625 -17.71875 L 6.71875 -17.71875 L 6.71875 -12.90625 L 9.4375 -12.90625 L 9.4375 -9.515625 L 6.71875 -9.515625 L 6.71875 -5.40625 C 6.71875 -4.21875 7.054688 -3.625 7.734375 -3.625 C 7.898438 -3.625 8.070312 -3.65625 8.25 -3.71875 C 8.4375 -3.789062 8.582031 -3.859375 8.6875 -3.921875 L 8.828125 -4.03125 L 9.9375 -0.421875 C 8.988281 0.109375 7.898438 0.375 6.671875 0.375 C 5.828125 0.375 5.101562 0.226562 4.5 -0.0625 C 3.894531 -0.351562 3.4375 -0.742188 3.125 -1.234375 C 2.820312 -1.734375 2.601562 -2.253906 2.46875 -2.796875 C 2.332031 -3.347656 2.265625 -3.9375 2.265625 -4.5625 L 2.265625 -9.515625 L 0.40625 -9.515625 L 0.40625 -12.90625 Z M 2.265625 -12.90625 "/></g></g></g><g fill="#2b1511" fill-opacity="1"><g transform="translate(62.348068, 86.9557)"><g><path d="M 6.25 -20.765625 L 6.25 -4.15625 L 13.390625 -4.15625 L 13.390625 0 L 1.515625 0 L 1.515625 -20.765625 Z M 6.25 -20.765625 "/></g></g></g><g fill="#2b1511" fill-opacity="1"><g transform="translate(76.009716, 86.9557)"><g><path d="M 2.734375 -1.53125 C 1.296875 -2.8125 0.578125 -4.445312 0.578125 -6.4375 C 0.578125 -8.4375 1.320312 -10.078125 2.8125 -11.359375 C 4.3125 -12.648438 6.160156 -13.296875 8.359375 -13.296875 C 10.523438 -13.296875 12.347656 -12.648438 13.828125 -11.359375 C 15.316406 -10.066406 16.0625 -8.425781 16.0625 -6.4375 C 16.0625 -4.457031 15.332031 -2.828125 13.875 -1.546875 C 12.425781 -0.265625 10.585938 0.375 8.359375 0.375 C 6.046875 0.375 4.171875 -0.257812 2.734375 -1.53125 Z M 6.171875 -8.625 C 5.597656 -8.0625 5.3125 -7.332031 5.3125 -6.4375 C 5.3125 -5.550781 5.585938 -4.828125 6.140625 -4.265625 C 6.691406 -3.703125 7.421875 -3.421875 8.328125 -3.421875 C 9.203125 -3.421875 9.921875 -3.707031 10.484375 -4.28125 C 11.046875 -4.851562 11.328125 -5.570312 11.328125 -6.4375 C 11.328125 -7.332031 11.035156 -8.0625 10.453125 -8.625 C 9.878906 -9.195312 9.171875 -9.484375 8.328125 -9.484375 C 7.472656 -9.484375 6.753906 -9.195312 6.171875 -8.625 Z M 6.171875 -8.625 "/></g></g></g><g fill="#2b1511" fill-opacity="1"><g transform="translate(92.086743, 86.9557)"><g><path d="M 8.375 -9.640625 C 7.539062 -9.640625 6.820312 -9.328125 6.21875 -8.703125 C 5.613281 -8.085938 5.3125 -7.34375 5.3125 -6.46875 C 5.3125 -5.582031 5.613281 -4.828125 6.21875 -4.203125 C 6.820312 -3.578125 7.539062 -3.265625 8.375 -3.265625 C 8.78125 -3.265625 9.160156 -3.316406 9.515625 -3.421875 C 9.878906 -3.523438 10.148438 -3.625 10.328125 -3.71875 L 10.546875 -3.875 L 12.0625 -0.78125 C 11.9375 -0.695312 11.769531 -0.59375 11.5625 -0.46875 C 11.351562 -0.34375 10.875 -0.171875 10.125 0.046875 C 9.382812 0.265625 8.585938 0.375 7.734375 0.375 C 5.835938 0.375 4.171875 -0.289062 2.734375 -1.625 C 1.296875 -2.957031 0.578125 -4.554688 0.578125 -6.421875 C 0.578125 -8.296875 1.296875 -9.910156 2.734375 -11.265625 C 4.171875 -12.617188 5.835938 -13.296875 7.734375 -13.296875 C 8.585938 -13.296875 9.375 -13.191406 10.09375 -12.984375 C 10.8125 -12.785156 11.320312 -12.585938 11.625 -12.390625 L 12.0625 -12.078125 L 10.546875 -9.03125 C 9.992188 -9.4375 9.269531 -9.640625 8.375 -9.640625 Z M 8.375 -9.640625 "/></g></g></g><g fill="#2b1511" fill-opacity="1"><g transform="translate(103.88654, 86.9557)"><g><path d="M 2.390625 -1.59375 C 1.179688 -2.914062 0.578125 -4.53125 0.578125 -6.4375 C 0.578125 -8.351562 1.179688 -9.972656 2.390625 -11.296875 C 3.597656 -12.628906 5.132812 -13.296875 7 -13.296875 C 8.707031 -13.296875 10.117188 -12.757812 11.234375 -11.6875 L 11.234375 -12.90625 L 15.6875 -12.90625 L 15.6875 0 L 11.28125 0 L 11.28125 -1.453125 L 11.234375 -1.453125 C 10.117188 -0.234375 8.707031 0.375 7 0.375 C 5.132812 0.375 3.597656 -0.28125 2.390625 -1.59375 Z M 6.171875 -8.625 C 5.597656 -8.0625 5.3125 -7.332031 5.3125 -6.4375 C 5.3125 -5.550781 5.585938 -4.828125 6.140625 -4.265625 C 6.691406 -3.703125 7.421875 -3.421875 8.328125 -3.421875 C 9.203125 -3.421875 9.921875 -3.707031 10.484375 -4.28125 C 11.046875 -4.851562 11.328125 -5.570312 11.328125 -6.4375 C 11.328125 -7.332031 11.035156 -8.0625 10.453125 -8.625 C 9.878906 -9.195312 9.171875 -9.484375 8.328125 -9.484375 C 7.472656 -9.484375 6.753906 -9.195312 6.171875 -8.625 Z M 6.171875 -8.625 "/></g></g></g><g fill="#2b1511" fill-opacity="1"><g transform="translate(120.517096, 86.9557)"><g><path d="M 1.515625 0 L 1.515625 -21.640625 L 5.96875 -21.640625 L 5.96875 0 Z M 1.515625 0 "/></g></g></g></svg>